HIERARCHY
ROOT Hips
{
  OFFSET -30.0536 87.9497 -126.568
  CHANNELS 6 Xposition Yposition Zposition Zrotation Xrotation Yrotation
  JOINT LeftUpLeg
  {
    OFFSET 9.63379 -0.250344 0
    CHANNELS 6 Xposition Yposition Zposition Zrotation Xrotation Yrotation
    JOINT LeftLeg
    {
      OFFSET 0 -40.4779 -1.71313
      CHANNELS 6 Xposition Yposition Zposition Zrotation Xrotation Yrotation
      JOINT LeftFoot
      {
        OFFSET 0.0126047 -40.4416 -0.864524
        CHANNELS 6 Xposition Yposition Zposition Zrotation Xrotation Yrotation
        JOINT LeftToeBase
        {
          OFFSET -0.183287 -12.1867 8.28226
          CHANNELS 6 Xposition Yposition Zposition Zrotation Xrotation Yrotation
          End Site
          {
            OFFSET 0 0 9.15615
          }
        }
      }
    }
  }
  JOINT RightUpLeg
  {
    OFFSET -9.63379 -0.250344 0
    CHANNELS 6 Xposition Yposition Zposition Zrotation Xrotation Yrotation
    JOINT RightLeg
    {
      OFFSET 0 -40.478 -1.71313
      CHANNELS 6 Xposition Yposition Zposition Zrotation Xrotation Yrotation
      JOINT RightFoot
      {
        OFFSET -0.0126047 -40.4414 -0.864524
        CHANNELS 6 Xposition Yposition Zposition Zrotation Xrotation Yrotation
        JOINT RightToeBase
        {
          OFFSET 0.183287 -12.1867 8.28226
          CHANNELS 6 Xposition Yposition Zposition Zrotation Xrotation Yrotation
          End Site
          {
            OFFSET 0.00319481 0 9.156
          }
        }
      }
    }
  }
  JOINT Spine
  {
    OFFSET 0 5.60909 -1.89659
    CHANNELS 6 Xposition Yposition Zposition Zrotation Xrotation Yrotation
    JOINT Spine1
    {
      OFFSET 0 6.56349 1.09934
      CHANNELS 6 Xposition Yposition Zposition Zrotation Xrotation Yrotation
      JOINT Spine2
      {
        OFFSET 0 7.57662 1.04304
        CHANNELS 6 Xposition Yposition Zposition Zrotation Xrotation Yrotation
        JOINT Spine3
        {
          OFFSET 0 8.29213 0.399731
          CHANNELS 6 Xposition Yposition Zposition Zrotation Xrotation Yrotation
          JOINT Spine4
          {
            OFFSET 0 8.9581 -0.526302
            CHANNELS 6 Xposition Yposition Zposition Zrotation Xrotation Yrotation
            JOINT Neck
            {
              OFFSET 0 18.4163 -4.35419
              CHANNELS 6 Xposition Yposition Zposition Zrotation Xrotation Yrotation
              JOINT Head
              {
                OFFSET 0 8.97127 1.78542
                CHANNELS 6 Xposition Yposition Zposition Zrotation Xrotation Yrotation
                End Site
                {
                  OFFSET 0 0 0
                }
              }
            }
            JOINT LeftShoulder
            {
              OFFSET 6.14423 15.3316 -3.79324
              CHANNELS 6 Xposition Yposition Zposition Zrotation Xrotation Yrotation
              JOINT LeftArm
              {
                OFFSET 9.01906 -1.11411 -1.79347
                CHANNELS 6 Xposition Yposition Zposition Zrotation Xrotation Yrotation
                JOINT LeftForeArm
                {
                  OFFSET 27.687 0 0
                  CHANNELS 6 Xposition Yposition Zposition Zrotation Xrotation Yrotation
                  JOINT LeftHand
                  {
                    OFFSET 27.8738 0 0
                    CHANNELS 6 Xposition Yposition Zposition Zrotation Xrotation Yrotation
                    End Site
                    {
                      OFFSET 0 0 0
                    }
                  }
                }
              }
            }
            JOINT RightShoulder
            {
              OFFSET -6.14423 15.3316 -3.79324
              CHANNELS 6 Xposition Yposition Zposition Zrotation Xrotation Yrotation
              JOINT RightArm
              {
                OFFSET -9.01884 -1.11411 -1.79347
                CHANNELS 6 Xposition Yposition Zposition Zrotation Xrotation Yrotation
                JOINT RightForeArm
                {
                  OFFSET -27.0381 0.00109999 0
                  CHANNELS 6 Xposition Yposition Zposition Zrotation Xrotation Yrotation
                  JOINT RightHand
                  {
                    OFFSET -28.5227 0 0
                    CHANNELS 6 Xposition Yposition Zposition Zrotation Xrotation Yrotation
                    End Site
                    {
                      OFFSET 0 0 0
                    }
                  }
                }
              }
            }
          }
        }
      }
    }
  }
}
MOTION
Frames:	6
Frame Time:	0.00833333
-19.1812 88.5324 -219.961 -0.81026 7.45871 2.1673 9.63379 -0.250344 -7.15256e-007 -2.18686 1.41223 7.8656 0 -40.4779 -1.71313 -1.87933 3.53406 0.166171 0.0126047 -40.4416 -0.864524 0.0738538 0.992004 0.000834159 -0.183287 -12.1867 8.28226 1.22054e-011 -1.16919e-011 -1.75726e-013 -9.63379 -0.250344 -7.15256e-007 -4.32879 -29.1775 -12.3685 0 -40.478 -1.71313 6.00258 6.13729 1.86146 -0.0126047 -40.4414 -0.864524 0.116939 -3.82826 -0.0099816 0.183287 -12.1867 8.28226 6.1401e-012 -2.95501e-011 2.02213e-011 -2.64698e-023 5.60909 -1.89659 0.906061 -0.331359 -0.590204 0 6.56349 1.09934 -0.0582913 -0.745595 -1.39108 0 7.57662 1.04304 -0.0593202 -0.745173 -1.39127 0 8.29213 0.399731 -0.0603616 -0.744775 -1.39145 0 8.9581 -0.526302 -0.0614146 -0.744403 -1.39162 0 18.4163 -4.35419 -0.845142 -1.62811 0.0925403 1.05879e-022 8.97127 1.78542 5.95476 0.301567 -1.49219 6.14423 15.3316 -3.79324 -30.6783 2.85453 -4.25786 9.01906 -1.11411 -1.79347 -55.6835 2.19685 -18.8357 27.687 0 0 5.15382 33.4829 -8.603e-011 27.8738 0 0 3.45731 -1.34046 -6.62898 -6.14423 15.3316 -3.79324 37.4733 2.69754 2.67611 -9.01884 -1.11411 -1.79347 39.4776 11.3646 11.4947 -27.0381 0.00109999 5.96046e-008 -0.608506 8.81922 1.27676e-007 -28.5227 0 0 -14.1979 -1.09963 -0.60613 
-19.2672 88.4654 -219.511 -0.830011 7.54018 2.23618 9.63379 -0.250344 -7.15256e-007 -2.08789 1.54142 7.93251 0 -40.4779 -1.71313 -1.86288 3.65798 0.174959 0.0126047 -40.4416 -0.864524 0.0766298 1.01773 0.000828341 -0.183287 -12.1867 8.28226 1.22054e-011 -1.16919e-011 -1.75726e-013 -9.63379 -0.250344 -7.15256e-007 -4.34194 -29.1663 -12.457 0 -40.478 -1.71313 6.08597 6.2277 1.8047 -0.0126047 -40.4414 -0.864524 0.119783 -3.86687 -0.00998205 0.183287 -12.1867 8.28226 6.1401e-012 -2.95501e-011 2.02213e-011 -2.64698e-023 5.60909 -1.89659 0.926092 -0.347343 -0.585047 0 6.56349 1.09934 -0.0532614 -0.780637 -1.38785 0 7.57662 1.04304 -0.0543238 -0.780202 -1.38807 0 8.29213 0.399731 -0.0553993 -0.779792 -1.38827 0 8.9581 -0.526302 -0.056487 -0.779409 -1.38845 0 18.4163 -4.35419 -0.888982 -1.70928 0.081255 1.05879e-022 8.97127 1.78542 5.92879 0.339424 -1.51097 6.14423 15.3316 -3.79324 -30.7092 2.84781 -4.23325 9.01906 -1.11411 -1.79347 -55.7002 2.32945 -18.7375 27.687 0 0 5.02941 33.5162 -8.60631e-011 27.8738 0 0 3.43215 -1.33992 -6.53641 -6.14423 15.3316 -3.79324 37.4653 2.69179 2.66413 -9.01884 -1.11411 -1.79347 39.4946 11.3214 11.402 -27.0381 0.00109999 5.96046e-008 -0.608476 8.82109 1.27676e-007 -28.5227 0 0 -14.0975 -1.08567 -0.617172 
-19.3589 88.3986 -219.058 -0.872312 7.62685 2.30192 9.63379 -0.250344 -7.15256e-007 -1.9614 1.65845 8.00546 0 -40.4779 -1.71313 -1.84486 3.79476 0.184646 0.0126047 -40.4416 -0.864524 0.0798713 1.04816 0.000822522 -0.183287 -12.1867 8.28226 1.22054e-011 -1.16919e-011 -1.75726e-013 -9.63379 -0.250344 -7.15256e-007 -4.29397 -29.1584 -12.4773 0 -40.478 -1.71313 6.13757 6.37249 1.74216 -0.0126047 -40.4414 -0.864524 0.122804 -3.84647 -0.00998181 0.183287 -12.1867 8.28226 6.1401e-012 -2.95501e-011 2.02213e-011 -2.64698e-023 5.60909 -1.89659 0.956057 -0.36412 -0.579047 0 6.56349 1.09934 -0.0456689 -0.817796 -1.38287 0 7.57662 1.04304 -0.0467699 -0.817346 -1.38312 0 8.29213 0.399731 -0.0478849 -0.816922 -1.38334 0 8.9581 -0.526302 -0.0490129 -0.816526 -1.38355 0 18.4163 -4.35419 -0.925371 -1.78561 0.0683191 1.05879e-022 8.97127 1.78542 5.89146 0.364271 -1.52596 6.14423 15.3316 -3.79324 -30.7413 2.83831 -4.20082 9.01906 -1.11411 -1.79347 -55.6932 2.49289 -18.6321 27.687 0 0 4.86604 33.6082 -8.61548e-011 27.8738 0 0 3.48639 -1.31323 -6.43239 -6.14423 15.3316 -3.79324 37.4592 2.68478 2.649 -9.01884 -1.11411 -1.79347 39.5078 11.2782 11.3167 -27.0381 0.00109999 5.96046e-008 -0.605398 8.82485 1.27677e-007 -28.5227 0 0 -13.9755 -1.07212 -0.596033 
-19.4557 88.3355 -218.598 -0.937112 7.71106 2.36087 9.63379 -0.250344 -7.15256e-007 -1.8125 1.77687 8.08325 0 -40.4779 -1.71313 -1.82045 3.93786 0.194159 0.0126047 -40.4416 -0.864524 0.0832154 1.08166 0.000816701 -0.183287 -12.1867 8.28226 1.22054e-011 -1.16919e-011 -1.75726e-013 -9.63379 -0.250344 -7.15256e-007 -4.19299 -29.1473 -12.4303 0 -40.478 -1.71313 6.17225 6.55253 1.6763 -0.0126047 -40.4414 -0.864524 0.125618 -3.79754 -0.00998124 0.183287 -12.1867 8.28226 6.1401e-012 -2.95501e-011 2.02213e-011 -2.64698e-023 5.60909 -1.89659 0.992017 -0.380617 -0.572711 0 6.56349 1.09934 -0.034542 -0.854637 -1.37658 0 7.57662 1.04304 -0.0356833 -0.854171 -1.37686 0 8.29213 0.399731 -0.0368396 -0.853733 -1.37712 0 8.9581 -0.526302 -0.0380099 -0.853322 -1.37736 0 18.4163 -4.35419 -0.953969 -1.85551 0.0570658 1.05879e-022 8.97127 1.78542 5.84691 0.375668 -1.53481 6.14423 15.3316 -3.79324 -30.776 2.82686 -4.16265 9.01906 -1.11411 -1.79347 -55.6664 2.66718 -18.5241 27.687 0 0 4.68598 33.7192 -8.6266e-011 27.8738 0 0 3.57496 -1.27555 -6.32692 -6.14423 15.3316 -3.79324 37.4547 2.67773 2.63351 -9.01884 -1.11411 -1.79347 39.5167 11.2379 11.2438 -27.0381 0.00109999 5.96046e-008 -0.599884 8.83414 1.2768e-007 -28.5227 0 0 -13.8466 -1.05865 -0.565526 
-19.5568 88.2798 -218.129 -1.02431 7.78513 2.40937 9.63379 -0.250344 -7.15256e-007 -1.64638 1.91021 8.16472 0 -40.4779 -1.71313 -1.7848 4.08073 0.202428 0.0126047 -40.4416 -0.864524 0.0862987 1.11659 0.00081088 -0.183287 -12.1867 8.28226 1.22054e-011 -1.16919e-011 -1.75726e-013 -9.63379 -0.250344 -7.15256e-007 -4.04715 -29.1266 -12.3166 0 -40.478 -1.71313 6.20484 6.74868 1.60959 -0.0126047 -40.4414 -0.864524 0.12784 -3.75058 -0.0099807 0.183287 -12.1867 8.28226 6.1401e-012 -2.95501e-011 2.02213e-011 -2.64698e-023 5.60909 -1.89659 1.03003 -0.395761 -0.566542 0 6.56349 1.09934 -0.0189108 -0.888723 -1.36942 0 7.57662 1.04304 -0.0200907 -0.888242 -1.36973 0 8.29213 0.399731 -0.0212866 -0.88779 -1.37002 0 8.9581 -0.526302 -0.0224974 -0.887366 -1.3703 0 18.4163 -4.35419 -0.974416 -1.91742 0.0508288 1.05879e-022 8.97127 1.78542 5.79925 0.373172 -1.53519 6.14423 15.3316 -3.79324 -30.8149 2.81433 -4.12077 9.01906 -1.11411 -1.79347 -55.6235 2.83226 -18.4183 27.687 0 0 4.51148 33.8092 -8.63566e-011 27.8738 0 0 3.6529 -1.24204 -6.22998 -6.14423 15.3316 -3.79324 37.4514 2.67182 2.62046 -9.01884 -1.11411 -1.79347 39.5211 11.2032 11.1884 -27.0381 0.00109999 5.96046e-008 -0.592549 8.85257 1.27686e-007 -28.5227 0 0 -13.7253 -1.04495 -0.548461 
-19.6616 88.2349 -217.648 -1.13377 7.84138 2.44379 9.63379 -0.250344 -7.15256e-007 -1.46832 2.07199 8.24871 0 -40.4779 -1.71313 -1.73306 4.21684 0.208378 0.0126047 -40.4416 -0.864524 0.0887583 1.15129 0.000805057 -0.183287 -12.1867 8.28226 1.22054e-011 -1.16919e-011 -1.75726e-013 -9.63379 -0.250344 -7.15256e-007 -3.86473 -29.0895 -12.1371 0 -40.478 -1.71313 6.25 6.94179 1.5445 -0.0126047 -40.4414 -0.864524 0.129085 -3.73606 -0.00998054 0.183287 -12.1867 8.28226 6.1401e-012 -2.95501e-011 2.02213e-011 -2.64698e-023 5.60909 -1.89659 1.06615 -0.408478 -0.561049 0 6.56349 1.09934 0.00219192 -0.917618 -1.36183 0 7.57662 1.04304 0.000978703 -0.917125 -1.36218 0 8.29213 0.399731 -0.000251403 -0.916661 -1.36251 0 8.9581 -0.526302 -0.00149736 -0.916227 -1.36282 0 18.4163 -4.35419 -0.986341 -1.96974 0.0529421 1.05879e-022 8.97127 1.78542 5.75264 0.356342 -1.52473 6.14423 15.3316 -3.79324 -30.8595 2.80155 -4.07724 9.01906 -1.11411 -1.79347 -55.5681 2.96801 -18.3192 27.687 0 0 4.3648 33.8385 -8.63862e-011 27.8738 0 0 3.67536 -1.22789 -6.15154 -6.14423 15.3316 -3.79324 37.4492 2.66825 2.61264 -9.01884 -1.11411 -1.79347 39.5205 11.1767 11.1557 -27.0381 0.00109999 5.96046e-008 -0.584005 8.88378 1.27696e-007 -28.5227 0 0 -13.6261 -1.03069 -0.567648 
